<svg xmlns="http://www.w3.org/2000/svg" viewBox="0 0 128 128">
  <g stroke="currentColor" stroke-width="2.5" fill="currentColor">
    <!-- edges: layer 1 -> layer 2 -->
    <line x1="24" y1="32" x2="64" y2="20"/>
    <line x1="24" y1="32" x2="64" y2="50"/>
    <line x1="24" y1="32" x2="64" y2="78"/>
    <line x1="24" y1="32" x2="64" y2="108"/>
    <line x1="24" y1="64" x2="64" y2="20"/>
    <line x1="24" y1="64" x2="64" y2="50"/>
    <line x1="24" y1="64" x2="64" y2="78"/>
    <line x1="24" y1="64" x2="64" y2="108"/>
    <line x1="24" y1="96" x2="64" y2="20"/>
    <line x1="24" y1="96" x2="64" y2="50"/>
    <line x1="24" y1="96" x2="64" y2="78"/>
    <line x1="24" y1="96" x2="64" y2="108"/>
    <!-- edges: layer 2 -> layer 3 -->
    <line x1="64" y1="20" x2="104" y2="32"/>
    <line x1="64" y1="20" x2="104" y2="64"/>
    <line x1="64" y1="20" x2="104" y2="96"/>
    <line x1="64" y1="50" x2="104" y2="32"/>
    <line x1="64" y1="50" x2="104" y2="64"/>
    <line x1="64" y1="50" x2="104" y2="96"/>
    <line x1="64" y1="78" x2="104" y2="32"/>
    <line x1="64" y1="78" x2="104" y2="64"/>
    <line x1="64" y1="78" x2="104" y2="96"/>
    <line x1="64" y1="108" x2="104" y2="32"/>
    <line x1="64" y1="108" x2="104" y2="64"/>
    <line x1="64" y1="108" x2="104" y2="96"/>
    <!-- nodes: layer 1 -->
    <circle cx="24" cy="32" r="7"/>
    <circle cx="24" cy="64" r="7"/>
    <circle cx="24" cy="96" r="7"/>
    <!-- nodes: layer 2 -->
    <circle cx="64" cy="20" r="7"/>
    <circle cx="64" cy="50" r="7"/>
    <circle cx="64" cy="78" r="7"/>
    <circle cx="64" cy="108" r="7"/>
    <!-- nodes: layer 3 -->
    <circle cx="104" cy="32" r="7"/>
    <circle cx="104" cy="64" r="7"/>
    <circle cx="104" cy="96" r="7"/>
  </g>
</svg>
